# AST/ASF file generated using VICON BodyLanguage
# -----------------------------------------------
:version 1.10
:name VICON
:units
  mass 1.0
  length 0.45
  angle deg
:documentation
   .ast/.asf automatically generated from VICON data using
   VICON BodyBuilder and BodyLanguage model FoxedUp or BRILLIANT.MOD
:root
   order TX TY TZ RX RY RZ
   axis XYZ
   position 0 0 0  
   orientation 0 0 0 
:bonedata
  begin
     id 1 
     name lhipjoint
     direction 0.621036 -0.695554 0.361275 
     length 2.46325 
     axis 0 0 0  XYZ
  end
  begin
     id 2 
     name lfemur
     direction 0.34202 -0.939693 0  
     length 6.54784  
     axis 0 0 20  XYZ
    dof rx ry rz
    limits (-160.0 20.0)
           (-70.0 70.0)
           (-60.0 70.0)
  end
  begin
     id 3 
     name ltibia
     direction 0.34202 -0.939693 0   
     length 7.84737   
     axis 0 0 20   XYZ
    dof rx
    limits (-10.0 170.0)
  end
  begin
     id 4 
     name lfoot
     direction 0.0790693 -0.217241 0.97291   
     length 2.59747   
     axis -90 7.62852e-016 20   XYZ
    dof rx rz
    limits (-45.0 90.0)
           (-70.0 20.0)
  end
  begin
     id 5 
     name ltoes
     direction 1.53572e-011 -4.21898e-011 1   
     length 1.29919   
     axis -90 7.62852e-016 20   XYZ
    dof rx
    limits (-90.0 20.0)
  end
  begin
     id 6 
     name rhipjoint
     direction -0.602353 -0.708375 0.367935   
     length 2.41867  
     axis 0 0 0  XYZ 
  end
  begin
     id 7 
     name rfemur
     direction -0.34202 -0.939693 0   
     length 6.92065   
     axis 0 0 -20   XYZ
    dof rx ry rz
    limits (-160.0 20.0)
           (-70.0 70.0)
           (-70.0 60.0)
  end
  begin
     id 8 
     name rtibia
     direction -0.34202 -0.939693 0   
     length 7.88883   
     axis 0 0 -20   XYZ
    dof rx
    limits (-10.0 170.0)
 end
 begin
     id 9 
     name rfoot
     direction -0.0768692 -0.211196 0.974416   
     length 2.43714  
     axis -90 -7.62852e-016 -20   XYZ
    dof rx rz
    limits (-45.0 90.0)
           (-20.0 70.0)
  end
  begin
     id 10 
     name rtoes
     direction -1.53575e-011 -4.21933e-011 1   
     length 1.22113   
     axis -90 -7.62852e-016 -20   XYZ
    dof rx
    limits (-90.0 20.0)
  end
  begin
     id 11 
     name lowerback
     direction 0.0197937 0.98943 -0.143655   
     length 2.16931   
     axis 0 0 0   XYZ
    dof rx ry rz
    limits (-20.0 45.0)
           (-30.0 30.0)
           (-30.0 30.0)
  end
  begin
     id 12 
     name upperback
     direction -0.00183968 0.999975 0.00684288   
     length 2.17221   
     axis 0 0 0   XYZ
    dof rx ry rz
    limits (-20.0 45.0)
           (-30.0 30.0)
           (-30.0 30.0)
  end
  begin
     id 13 
     name thorax
     direction -0.00950244 0.997208 0.0740685   
     length 2.22549   
     axis 0 0 0   XYZ
    dof rx ry rz
    limits (-20.0 45.0)
           (-30.0 30.0)
           (-30.0 30.0)
  end
  begin
     id 14 
     name lowerneck
     direction 0.0218238 0.996215 0.0841425   
     length 1.77269   
     axis 0 0 0   XYZ
    dof rx ry rz
    limits (-20.0 45.0)
           (-30.0 30.0)
           (-30.0 30.0)
  end
  begin
     id 15 
     name upperneck
     direction -0.00430652 0.994214 -0.107332   
     length 1.76534   
     axis 0 0 0   XYZ
    dof rx ry rz
    limits (-20.0 45.0)
           (-30.0 30.0)
           (-30.0 30.0)
  end
  begin
     id 16
     name head
     direction -0.00328946 0.998959 -0.0454998  
     length 1.82634  
     axis 0 0 0   XYZ
    dof rx ry rz
    limits (-20.0 45.0)
           (-30.0 30.0)
           (-30.0 30.0)
  end
  begin
     id 17 
     name lclavicle
     direction 0.970962 0.239191 0.00450212  
     length 3.84872  
     axis 0 0 0   XYZ
    dof ry rz
    limits (-20.0 10.0)
           (0.0 20.0)
  end
  begin
     id 18 
     name lhumerus
     direction 1 -4.48966e-011 5.74696e-028   
     length 5.22771   
     axis 180 -30 -90   XYZ
    dof rx ry rz
    limits (-60.0 90.0)
           (-90.0 90.0)
           (-90.0 90.0)
  end
  begin
     id 19
     name lradius
     direction 1 -4.4896e-011 4.25109e-027   
     length 3.45251   
     axis 180 -30 -90   XYZ
    dof rx
    limits (-10.0 170.0)
  end
  begin
     id 20
     name lwrist
     direction 1 -4.48971e-011 1.15382e-027   
     length 1.72626   
     axis -5.52449e-016 90 90   XYZ
    dof ry
    limits (-180.0 0.0)
 end
  begin
     id 21 
     name lhand
     direction 1 -4.49034e-011 2.30765e-027   
     length 0.552119   
     axis -1.47248e-015 90 90   XYZ
    dof rx rz
    limits (-90.0 90.0)
           (-45.0 45.0)
  end
  begin
     id 22 
     name lfingers
     direction 1 -4.48951e-011 4.61529e-027   
     length 0.445133   
     axis -2.94495e-015 90 90   XYZ
    dof rx
    limits (0.0 90.0)
  end
  begin
     id 23
     name lthumb
     direction 0.707107 -6.34991e-011 0.707107   
     length 0.639124   
     axis -90 45 2.85299e-015   XYZ
    dof rx rz
    limits (-45.0 45.0)
           (-45.0 45.0)
  end
  begin
     id 24 
     name rclavicle
     direction -0.97424 0.222511 -0.0366699   
     length 3.73439  
     axis 0 0 0   XYZ 
    dof ry rz
    limits (-10.0 20.0)
           (-20.0 0.0)
  end
  begin
     id 25 
     name rhumerus
     direction -1 -4.48956e-011 -4.97258e-028  
     length 5.2398   
     axis 180 30 90   XYZ
    dof rx ry rz
    limits (-90.0 60.0)
           (-90.0 90.0)
           (-90.0 90.0)
  end
  begin
     id 26 
     name rradius
     direction -1 -4.4897e-011 -1.72611e-027   
     length 3.48042   
     axis 180 30 90   XYZ
    dof rx
    limits (-10.0 170.0)
  end
  begin
     id 27 
     name rwrist
     direction -1 -4.48976e-011 1.15382e-027   
     length 1.74021   
     axis -5.52449e-016 -90 -90   XYZ
    dof ry
    limits (-180.0 0.0)
  end
  begin
     id 28
     name rhand
     direction -1 -4.48963e-011 2.30765e-027   
     length 0.618713   
     axis -1.47248e-015 -90 -90   XYZ
    dof rx rz
    limits (-90.0 90.0)
           (-45.0 45.0)
  end
  begin
     id 29
     name rfingers
     direction -1 -4.4888e-011 4.61529e-027   
     length 0.498823   
     axis -2.94495e-015 -90 -90   XYZ
    dof rx
    limits (0.0 90.0)
  end
  begin
     id 30
     name rthumb
     direction -0.707107 -6.34968e-011 0.707107   
     length 0.716213   
     axis -90 -45 -2.85299e-015   XYZ
    dof rx rz
    limits (-45.0 45.0)
           (-45.0 45.0)
  end
:hierarchy
  begin
    root lhipjoint rhipjoint lowerback
    lhipjoint lfemur
    lfemur ltibia
    ltibia lfoot
    lfoot ltoes
    rhipjoint rfemur
    rfemur rtibia
    rtibia rfoot
    rfoot rtoes
    lowerback upperback
    upperback thorax
    thorax lowerneck lclavicle rclavicle
    lowerneck upperneck
    upperneck head
    lclavicle lhumerus
    lhumerus lradius
    lradius lwrist
    lwrist lhand lthumb
    lhand lfingers
    rclavicle rhumerus
    rhumerus rradius
    rradius rwrist
    rwrist rhand rthumb
    rhand rfingers
  end

#!OML:ASF G:\JayActor3\Patient Classification 1\Patient 1\Session 5\male.ASF
:FULLY-SPECIFIED
:DEGREES
262
root 42.9432 16.0969 -5.26467 -0.942549 83.8427 -30.1231
lowerback 26.1845 -0.646972 0.180508
upperback 5.39423 -0.441368 -0.398417
thorax -8.53695 -0.0603807 -0.424624
lowerneck 3.77744 0.540268 2.14802
upperneck -18.2369 1.29117 0.0453977
head -6.12866 0.634371 -0.442961
rclavicle -2.0276e-014 -2.5842e-014
rhumerus -28.1386 2.00136 -89.1628
rradius 36.7746
rwrist -4.79027
rhand -21.1813 -6.7794
rfingers 7.12502
rthumb 5.1993 -36.6956
lclavicle -2.0276e-014 -2.5842e-014
lhumerus -27.0282 -5.15361 85.6622
lradius 37.3089
lwrist 24.1331
lhand -21.1006 8.34018
lfingers 7.12502
lthumb 5.27724 38.2545
rfemur -44.6535 5.00895 18.6623
rtibia 60.0072
rfoot -18.531 -7.39907
rtoes -13.6244
lfemur -55.288 12.6178 -30.1633
ltibia 15.0508
lfoot 10.6223 -4.10069
ltoes 1.46193
263
root 42.8496 16.0771 -5.23098 -2.47738 83.9438 -31.4072
lowerback 26.2747 -0.65996 0.293178
upperback 5.44504 -0.418302 -0.361723
thorax -8.52637 -0.0493602 -0.456452
lowerneck 3.80558 0.528328 2.15106
upperneck -18.2436 1.27775 0.0561659
head -6.13591 0.626648 -0.439405
rclavicle 1.27222e-014 3.22031e-014
rhumerus -28.1672 2.02417 -89.1875
rradius 36.7715
rwrist -4.8041
rhand -21.1837 -6.74236
rfingers 7.12502
rthumb 5.19693 -36.6586
lclavicle 1.27222e-014 3.22031e-014
lhumerus -27.0318 -5.13419 85.6859
lradius 37.3459
lwrist 24.0948
lhand -21.103 8.31378
lfingers 7.12502
lthumb 5.27494 38.2281
rfemur -43.9682 5.03966 19.1517
rtibia 59.0577
rfoot -19.9691 -7.93369
rtoes -13.8023
lfemur -55.2101 12.3991 -29.6956
ltibia 14.8273
lfoot 11.1377 -3.7658
ltoes 1.41074
264
root 42.7538 16.0571 -5.19616 -4.26267 84.0339 -32.9147
lowerback 26.3891 -0.671284 0.41813
upperback 5.50422 -0.388049 -0.320397
thorax -8.51848 -0.0347317 -0.492615
lowerneck 3.83461 0.515345 2.15289
upperneck -18.259 1.26404 0.0715406
head -6.14609 0.618595 -0.434233
rclavicle 3.97569e-015 3.81667e-014
rhumerus -28.1846 2.05781 -89.215
rradius 36.7614
rwrist -4.8046
rhand -21.1741 -6.71355
rfingers 7.12502
rthumb 5.20624 -36.6296
lclavicle 3.97569e-015 3.81667e-014
lhumerus -27.0386 -5.11649 85.7098
lradius 37.395
lwrist 24.081
lhand -21.1145 8.29215
lfingers 7.12502
lthumb 5.26379 38.2068
rfemur -43.266 5.04454 19.6912
rtibia 58.09
rfoot -21.3883 -8.5321
rtoes -13.8282
lfemur -55.114 12.1982 -29.1995
ltibia 14.6101
lfoot 11.6639 -3.4474
ltoes 1.34557
265
root 42.656 16.0366 -5.16041 -6.25801 84.1132 -34.6103
lowerback 26.5221 -0.681298 0.556914
upperback 5.57033 -0.350902 -0.276417
thorax -8.51203 -0.0167348 -0.536138
lowerneck 3.85757 0.500453 2.14657
upperneck -18.2717 1.2491 0.10037
head -6.15455 0.609556 -0.423308
rclavicle 5.96354e-015 2.50469e-014
rhumerus -28.1929 2.10112 -89.2424
rradius 36.7471
rwrist -4.79821
rhand -21.163 -6.68195
rfingers 7.12502
rthumb 5.21698 -36.5977
lclavicle 5.96354e-015 2.50469e-014
lhumerus -27.0464 -5.10595 85.7359
lradius 37.4525
lwrist 24.0953
lhand -21.1162 8.28202
lfingers 7.12502
lthumb 5.26212 38.1967
rfemur -42.5647 5.01657 20.2716
rtibia 57.1422
rfoot -22.7731 -9.15183
rtoes -13.6223
lfemur -55.0061 12.0109 -28.6809
ltibia 14.3986
lfoot 12.2051 -3.14632
ltoes 1.25987
266
root 42.5557 16.0155 -5.12368 -8.31915 84.1832 -36.3532
lowerback 26.6718 -0.687142 0.696973
upperback 5.64107 -0.307134 -0.234621
thorax -8.50845 0.00467597 -0.585106
lowerneck 3.88069 0.481869 2.13208
upperneck -18.2839 1.23099 0.145036
head -6.16306 0.598338 -0.405792
rclavicle -4.37326e-015 -3.22031e-014
rhumerus -28.1953 2.14512 -89.2702
rradius 36.728
rwrist -4.78381
rhand -21.1451 -6.65669
rfingers 7.12502
rthumb 5.23423 -36.572
lclavicle -4.37326e-015 -3.22031e-014
lhumerus -27.0516 -5.12016 85.7637
lradius 37.5121
lwrist 24.1341
lhand -21.1125 8.28326
lfingers 7.12502
lthumb 5.26576 38.1978
rfemur -41.8855 4.9587 20.8703
rtibia 56.246
rfoot -24.1049 -9.76683
rtoes -13.1852
lfemur -54.8892 11.8351 -28.1546
ltibia 14.1916
lfoot 12.7711 -2.8311
ltoes 1.27553
267
root 42.4529 15.9938 -5.08609 -10.4688 84.246 -38.1758
lowerback 26.8258 -0.692185 0.843552
upperback 5.71492 -0.260101 -0.196478
thorax -8.50318 0.0276991 -0.643091
lowerneck 3.90043 0.460508 2.11937
upperneck -18.2893 1.21057 0.199071
head -6.16893 0.585165 -0.385384
rclavicle 1.19271e-015 -2.38542e-014
rhumerus -28.1933 2.18578 -89.3012
rradius 36.7073
rwrist -4.76346
rhand -21.1331 -6.62348
rfingers 7.12502
rthumb 5.24586 -36.5385
lclavicle 1.19271e-015 -2.38542e-014
lhumerus -27.0497 -5.16673 85.7882
lradius 37.567
lwrist 24.1883
lhand -21.1007 8.2786
lfingers 7.12502
lthumb 5.27714 38.1929
rfemur -41.2547 4.87439 21.4791
rtibia 55.4214
rfoot -25.3647 -10.3487
rtoes -12.5435
lfemur -54.7731 11.6649 -27.6199
ltibia 13.9817
lfoot 13.3723 -2.49332
ltoes 1.39363
268
root 42.3475 15.9716 -5.04773 -12.682 84.2991 -40.0603
lowerback 26.9775 -0.69428 0.996631
upperback 5.7902 -0.20738 -0.162246
thorax -8.49471 0.0533902 -0.711185
lowerneck 3.92008 0.43582 2.10451
upperneck -18.2869 1.18678 0.263398
head -6.1724 0.569658 -0.361077
rclavicle 1.90833e-014 1.94809e-014
rhumerus -28.189 2.22121 -89.3328
rradius 36.6856
rwrist -4.74817
rhand -21.1275 -6.58026
rfingers 7.12502
rthumb 5.25122 -36.4952
lclavicle 1.90833e-014 1.94809e-014
lhumerus -27.0367 -5.25242 85.8097
lradius 37.6146
lwrist 24.2459
lhand -21.0792 8.29285
lfingers 7.12502
lthumb 5.29787 38.2066
rfemur -40.6934 4.77957 22.0823
rtibia 54.6761
rfoot -26.5306 -10.883
rtoes -11.7604
lfemur -54.6617 11.5009 -27.0793
ltibia 13.7613
lfoot 14.0104 -2.12353
ltoes 1.61721
269
root 42.2391 15.9491 -5.00844 -14.9138 84.3376 -41.9668
lowerback 27.1261 -0.690109 1.15213
upperback 5.86584 -0.1462 -0.133866
thorax -8.48364 0.0830735 -0.790139
lowerneck 3.93898 0.408655 2.08871
upperneck -18.281 1.16188 0.342026
head -6.17476 0.552621 -0.331983
rclavicle 3.02153e-014 2.38542e-014
rhumerus -28.1842 2.24552 -89.3697
rradius 36.6659
rwrist -4.74082
rhand -21.1373 -6.53859
rfingers 7.12502
rthumb 5.24176 -36.4538
lclavicle 3.02153e-014 2.38542e-014
lhumerus -27.0031 -5.37686 85.8229
lradius 37.6435
lwrist 24.2906
lhand -21.0411 8.30369
lfingers 7.12502
lthumb 5.33468 38.2165
rfemur -40.2207 4.69803 22.6664
rtibia 54.0139
rfoot -27.5689 -11.3943
rtoes -10.8783
lfemur -54.5576 11.3486 -26.5354
ltibia 13.5174
lfoot 14.6994 -1.71547
ltoes 1.93552
270
root 42.1279 15.9267 -4.96857 -17.1759 84.3533 -43.9067
lowerback 27.2716 -0.681335 1.3116
upperback 5.94403 -0.0779732 -0.109463
thorax -8.46754 0.116154 -0.878323
lowerneck 3.95898 0.38048 2.07702
upperneck -18.2767 1.13594 0.41969
head -6.1778 0.534882 -0.303822
rclavicle -1.94809e-014 -4.17448e-014
rhumerus -28.172 2.26396 -89.4129
rradius 36.6439
rwrist -4.73634
rhand -21.1519 -6.4994
rfingers 7.12502
rthumb 5.2277 -36.4149
lclavicle -1.94809e-014 -4.17448e-014
lhumerus -26.9455 -5.5187 85.8231
lradius 37.649
lwrist 24.3125
lhand -20.9935 8.31108
lfingers 7.12502
lthumb 5.38067 38.2228
rfemur -39.8351 4.64522 23.2259
rtibia 53.4323
rfoot -28.4776 -11.8761
rtoes -9.94234
lfemur -54.4579 11.2149 -25.984
ltibia 13.2444
lfoot 15.4379 -1.27934
ltoes 2.27631
271
root 42.0141 15.9046 -4.92817 -19.432 84.3388 -45.8349
lowerback 27.4267 -0.664368 1.47409
upperback 6.0283 0.00250996 -0.0862081
thorax -8.44851 0.155315 -0.973857
lowerneck 3.9743 0.351937 2.06309
upperneck -18.2757 1.10863 0.492795
head -6.181 0.517062 -0.276641
rclavicle 2.66371e-014 4.01545e-014
rhumerus -28.1503 2.27734 -89.4565
rradius 36.622
rwrist -4.73696
rhand -21.1641 -6.47336
rfingers 7.12502
rthumb 5.21589 -36.3892
lclavicle 2.66371e-014 4.01545e-014
lhumerus -26.8632 -5.65784 85.8159
lradius 37.634
lwrist 24.2952
lhand -20.9305 8.31656
lfingers 7.12502
lthumb 5.44146 38.2267
rfemur -39.5242 4.63196 23.7581
rtibia 52.9317
rfoot -29.2485 -12.3133
rtoes -8.87925
lfemur -54.3505 11.1078 -25.4242
ltibia 12.9352
lfoot 16.2272 -0.827113
ltoes 2.55682
272
root 41.8979 15.8833 -4.88754 -21.6165 84.2925 -47.6779
lowerback 27.6012 -0.637897 1.63616
upperback 6.12019 0.0965615 -0.0630697
thorax -8.4295 0.201363 -1.07417
lowerneck 3.9908 0.322327 2.04553
upperneck -18.2839 1.07814 0.555933
head -6.18724 0.49873 -0.251856
rclavicle -7.15625e-015 -1.27222e-014
rhumerus -28.1183 2.28655 -89.4961
rradius 36.599
rwrist -4.73475
rhand -21.1688 -6.45513
rfingers 7.12502
rthumb 5.21132 -36.3711
lclavicle -7.15625e-015 -1.27222e-014
lhumerus -26.7597 -5.78453 85.8026
lradius 37.5988
lwrist 24.2438
lhand -20.8589 8.3159
lfingers 7.12502
lthumb 5.51056 38.2243
rfemur -39.2699 4.65393 24.261
rtibia 52.5079
rfoot -29.8851 -12.7047
rtoes -7.72519
lfemur -54.2257 11.0359 -24.8545
ltibia 12.6009
lfoot 17.0701 -0.328201
ltoes 2.90811
273
root 41.7797 15.8628 -4.84692 -23.615 84.2192 -49.3113
lowerback 27.8094 -0.60372 1.78366
upperback 6.2223 0.198651 -0.0412113
thorax -8.41474 0.25213 -1.17075
lowerneck 4.00971 0.29543 2.03671
upperneck -18.3059 1.04777 0.589359
head -6.19801 0.482154 -0.238026
rclavicle -1.55052e-014 -2.38542e-015
rhumerus -28.0685 2.29995 -89.5323
rradius 36.5713
rwrist -4.72743
rhand -21.1724 -6.43682
rfingers 7.12502
rthumb 5.2079 -36.3528
lclavicle -1.55052e-014 -2.38542e-015
lhumerus -26.643 -5.88241 85.7806
lradius 37.5564
lwrist 24.18
lhand -20.7977 8.31358
lfingers 7.12502
lthumb 5.56966 38.2204
rfemur -39.0528 4.69829 24.7283
rtibia 52.155
rfoot -30.4126 -13.0082
rtoes -6.44894
lfemur -54.0848 10.9989 -24.2848
ltibia 12.2669
lfoot 17.9611 0.190049
ltoes 3.25141
274
root 41.6599 15.8435 -4.80638 -25.394 84.1299 -50.6992
lowerback 28.0526 -0.563355 1.91105
upperback 6.33526 0.305632 -0.0194603
thorax -8.40406 0.306299 -1.25814
lowerneck 4.03847 0.269469 2.03233
upperneck -18.349 1.01564 0.596878
head -6.21698 0.466353 -0.233168
rclavicle -6.75868e-015 2.78299e-015
rhumerus -28.0037 2.33349 -89.5621
rradius 36.5446
rwrist -4.72388
rhand -21.1666 -6.42035
rfingers 7.12502
rthumb 5.21352 -36.3362
lclavicle -6.75868e-015 2.78299e-015
lhumerus -26.5208 -5.94679 85.7545
lradius 37.5155
lwrist 24.1176
lhand -20.7564 8.32097
lfingers 7.12502
lthumb 5.60955 38.2267
rfemur -38.8586 4.74255 25.1628
rtibia 51.8629
rfoot -30.8552 -13.2133
rtoes -5.1136
lfemur -53.938 10.9938 -23.7165
ltibia 11.9736
lfoot 18.8869 0.732462
ltoes 3.70745
275
root 41.5387 15.825 -4.76595 -26.9994 84.0386 -51.8913
lowerback 28.3269 -0.522701 2.01764
upperback 6.45831 0.40976 0.00248303
thorax -8.39658 0.36023 -1.33307
lowerneck 4.07888 0.247935 2.03227
upperneck -18.4135 0.988054 0.586594
head -6.2446 0.453842 -0.235108
rclavicle 6.36111e-015 1.90833e-014
rhumerus -27.9209 2.39169 -89.5875
rradius 36.5173
rwrist -4.72053
rhand -21.1638 -6.41074
rfingers 7.12502
rthumb 5.21615 -36.3265
lclavicle 6.36111e-015 1.90833e-014
lhumerus -26.3979 -5.98829 85.7251
lradius 37.4788
lwrist 24.0766
lhand -20.7461 8.32279
lfingers 7.12502
lthumb 5.61947 38.2283
rfemur -38.6795 4.75926 25.5736
rtibia 51.625
rfoot -31.2387 -13.3197
rtoes -3.76053
lfemur -53.6727 10.3678 -22.4396
ltibia 11.7575
lfoot 19.7247 2.2158
ltoes 4.29204
